# xmcd CD database file
#
# Track frame offsets:
#	150
#	16482
#	29522
#	41830
#	51935
#	64105
#	82575
#	106790
#	118537
#	134725
#	148710
#	164902
#	177675
#	193502
#	214945
#	225985
#	245578
#	259298
#	270488
#	280905
#
# Disc length: 4362 seconds
#
# Revision: 0
# Processed by: cddbd v1.5.2PL0 Copyright (c) Steve Scherf et al.
# Submitted via: CDex 1.51
#
DISCID=2f110814
DTITLE=Nina Simone - Very Best
DYEAR=1900
DGENRE=Blues
TTITLE0=My babe just cares for me
TTITLE1=Feeling good
TTITLE2=Don't let me be misunderstood
TTITLE3=Ain't got no
TTITLE4=To love somebody
TTITLE5=Love me or leave me
TTITLE6=Don't smoke in bed
TTITLE7=I put a spell on you
TTITLE8=Here comes the sun
TTITLE9=Work song
TTITLE10=Ne me quitte pas
TTITLE11=I'm going back home
TTITLE12=Strange fruit
TTITLE13=Mississippi goddam
TTITLE14=Mood indigo
TTITLE15=Sinnerman
TTITLE16=Don't explain
TTITLE17=The other woman
TTITLE18=I loves you Porgy
TTITLE19=I'm gonna leave you
EXTD=
EXTT0=
EXTT1=
EXTT2=
EXTT3=
EXTT4=
EXTT5=
EXTT6=
EXTT7=
EXTT8=
EXTT9=
EXTT10=
EXTT11=
EXTT12=
EXTT13=
EXTT14=
EXTT15=
EXTT16=
EXTT17=
EXTT18=
EXTT19=
PLAYORDER=
